PathFileType	4	(X/Y/Z)	C:/Users/beibeiliu/ov580/test_trc\sequence.11_training_dense_right.trc
DataRate	CameraRate	NumFrames	NumMarkers	Units	OrigDataRate	OrigDataStartFrame	OrigNumFrames
120	120	25	19	mm	120	67	100
Frame#	Time	ThumbCMC			ThumbMCP			ThumbIP			ThumbTip			IndexMCP			IndexPIP			IndexTip			MiddleMCP			MiddlePIP			MiddleTip			RingMCP			RingPIP			RingTip			PinkyMCP			PinkyPIP			PinkyTip			BackHand1			BackHand2			BackHand3	
		X0	Y0	Z0	X1	Y1	Z1	X2	Y2	Z2	X3	Y3	Z3	X4	Y4	Z4	X5	Y5	Z5	X6	Y6	Z6	X7	Y7	Z7	X8	Y8	Z8	X9	Y9	Z9	X10	Y10	Z10	X11	Y11	Z11	X12	Y12	Z12	X13	Y13	Z13	X14	Y14	Z14	X15	Y15	Z15	X16	Y16	Z16	X17	Y17	Z17	X18	Y18	Z18	
66	0.55	36.7103	43.06	51.5847	24.8925	23.511	34.5762	15.2307	12.3157	12.4553	15.4662	1.58809	-3.39887	32.665	38.4583	-16.1428	23.5818	27.5838	-31.3326	16.7956	10.407	-50.8513	54.7855	37.6323	-24.1501	49.9687	25.1544	-44.5454	46.1557	9.25316	-67.1165	73.5845	29.7047	-24.17	69.3252	14.9791	-41.6217	63.3284	2.03438	-53.0186	93.4065	27.1771	-11.3874	91.9171	16.5266	-23.8869	92.3372	0.60789	-40.7924	84.5299	55.1176	17.0128	87.6224	60.6126	44.4237	59.7382	63.4038	35.7033	
67	0.558333	36.4144	39.3738	52.2854	24.7483	20.0866	33.9474	18.6332	9.65707	12.522	11.1379	-1.82956	-0.772352	34.6583	32.9593	-16.1061	25.2581	19.2425	-32.6693	22.0452	3.64113	-50.098	52.6437	29.4912	-26.8188	52.5428	18.356	-43.7419	49.6297	4.44941	-64.2764	77.0539	26.4509	-18.9521	71.9714	13.3642	-37.6693	68.1007	-1.01955	-53.5331	97.3896	21.6935	-8.79582	93.365	10.9545	-27.8156	96.7561	2.10318	-40.7553	83.8793	50.0066	21.2009	90.766	57.6556	46.6894	57.4157	59.2776	33.2324	
68	0.566667	38.8539	39.7179	52.3575	27.4452	22.4812	35.5399	13.8113	10.9031	15.3338	8.7613	1.5786	-0.421429	37.805	35.5093	-14.0309	31.9122	22.8371	-32.8521	22.0699	6.84517	-48.5981	59.1747	31.3411	-28.1591	55.8479	19.8051	-43.873	52.346	6.02298	-65.7071	80.3166	27.2914	-20.3957	73.5649	15.6179	-38.0126	68.9156	1.74563	-57.4346	97.4442	23.0657	-9.46897	95.2259	15.1048	-22.3851	97.5998	5.61238	-43.7484	83.716	51.1643	22.4089	90.2344	57.2306	44.3235	63.6589	59.2381	32.8388	
69	0.575	42.9421	44.5846	47.9561	27.9254	28.5723	34.0471	15.4965	18.8629	11.7379	9.54946	9.32061	0.0230741	34.7837	41.817	-17.5418	29.754	29.8471	-34.6405	23.2781	14.5722	-50.2667	58.6204	40.227	-26.0978	53.991	28.898	-45.4531	55.7753	12.8396	-67.6296	80.6072	35.185	-19.0645	74.4871	23.8322	-38.1265	75.2026	8.60656	-57.6744	96.449	29.9006	-11.5845	101.421	21.1706	-22.9826	101.838	13.3557	-40.806	87.2008	55.4363	19.6694	87.7386	62.3987	48.7747	61.5418	63.5815	38.2973	
70	0.583333	43.5797	46.4728	50.3446	27.9159	30.7363	30.92	13.4155	22.2909	12.5353	7.87475	13.727	-3.76701	38.6702	46.2562	-20.1259	30.1101	35.298	-36.627	21.7978	17.2271	-54.5201	63.0451	45.8283	-26.0926	54.1134	36.6773	-45.2179	55.9097	20.6739	-67.2176	78.6623	40.3223	-19.7804	75.5426	30.6138	-40.0342	71.1884	17.1872	-58.3018	97.5555	35.3243	-12.8422	100.372	25.4039	-28.7025	99.2515	21.4477	-42.8529	87.2663	57.2573	19.1555	89.0286	63.2675	44.5495	63.4576	68.4024	35.2121	
71	0.591667	43.2503	46.2122	48.5437	25.0533	31.4226	32.9001	18.6263	23.1925	9.37576	8.53853	13.9567	-8.15252	38.1099	50.3754	-17.792	33.7062	37.3484	-39.5236	24.2183	23.8171	-53.3143	58.7089	48.8241	-28.5971	55.1374	40.387	-47.526	51.42	21.4119	-71.553	79.794	42.539	-22.4092	80.2934	31.6516	-41.2178	72.7144	17.8894	-62.139	99.7616	36.679	-10.1166	98.7496	30.6361	-27.111	100.373	23.0364	-42.8373	88.7596	61.0502	22.1285	89.8618	64.0288	50.1486	63.6096	65.837	39.5325	
72	0.6	44.4174	44.4532	50.6881	26.5308	29.992	27.9645	18.8104	22.591	7.46386	11.5609	13.4945	-9.65701	41.481	50.9594	-16.7122	33.4062	38.3277	-41.9071	27.7113	22.191	-57.787	61.0907	48.3563	-28.3019	59.0163	38.0715	-51.0978	53.071	22.4399	-70.0064	80.0844	42.9273	-21.3604	75.5652	30.9343	-44.3246	75.7504	16.1122	-61.7345	98.3615	37.2468	-10.5129	98.815	27.6029	-31.6767	103.784	20.6987	-48.8943	88.2214	59.6311	21.3811	91.5056	62.534	43.7184	60.903	65.2199	34.2728	
73	0.608333	42.672	44.3206	45.2151	22.9688	28.8854	29.3603	18.4737	21.2173	7.66118	10.9317	14.0584	-9.5059	38.6875	51.2478	-19.3812	28.7688	40.5543	-40.2543	25.219	26.5791	-57.5585	59.503	49.3223	-29.0854	57.5507	39.4408	-49.5429	52.9541	21.981	-71.2546	78.6383	43.5291	-22.2067	79.274	31.6013	-46.6851	74.3859	16.9837	-62.9596	99.464	36.2875	-12.2447	102.483	27.4623	-31.2049	103.081	21.2273	-51.4861	84.5886	57.58	18.4881	89.1871	61.3156	46.1066	61.1695	64.1402	36.3981	
74	0.616667	42.8001	43.4437	44.8666	26.0854	29.4529	24.2862	18.1214	22.0295	6.70827	11.9159	14.2609	-12.4285	38.3169	52.1552	-20.5112	29.9477	41.8664	-44.0037	28.7499	26.8533	-60.2098	59.059	49.9711	-30.8406	58.2491	38.8651	-54.1129	55.3264	22.99	-72.8234	79.8391	45.2588	-23.4249	78.0513	31.3132	-50.0735	74.2635	20.6404	-62.9539	99.1919	37.5111	-13.9744	100.718	28.4993	-35.0643	98.9775	22.0082	-52.7898	87.4131	58.2377	15.8358	89.3351	61.4263	45.5942	61.1381	65.7639	31.0445	
75	0.625	41.739	45.2957	43.5875	24.8711	30.6882	27.0928	16.0281	23.1297	7.95696	6.80229	15.7754	-13.7305	38.1488	53.5891	-23.0881	31.3532	43.4425	-44.0241	24.7371	28.2187	-60.9456	58.0854	53.5482	-28.0516	54.7595	41.5719	-55.2643	53.021	20.3942	-75.4751	80.5711	46.027	-28.7875	76.744	37.5627	-46.223	73.802	21.6567	-64.102	99.7041	40.4454	-13.4085	102.019	33.0776	-30.7555	101.992	24.7329	-52.0818	88.0063	60.4435	16.0483	89.586	62.233	44.3885	59.856	68.9514	31.3525	
76	0.633333	42.8147	46.4211	45.3612	24.845	32.5301	22.4674	17.7426	24.6631	5.4433	6.47133	16.6011	-11.3157	42.0556	56.404	-20.1609	29.8856	46.0456	-42.2418	28.396	26.4037	-63.3172	58.8996	55.1336	-30.0098	57.5889	43.5705	-55.0727	52.9949	24.7545	-72.4622	79.0395	48.8626	-24.8825	77.9275	37.3602	-49.8754	74.1519	23.427	-64.1645	98.6323	42.7877	-14.1645	101.441	36.1028	-31.553	99.8596	28.4275	-53.4286	86.4041	61.3424	21.3265	92.1371	66.0539	41.5682	63.3328	68.8409	36.2681	
77	0.641667	42.01	46.908	44.8831	29.3244	31.8756	25.6452	18.1986	25.7734	6.53194	8.64773	17.2309	-11.5929	36.9551	55.8313	-23.3957	32.1924	43.9564	-43.3757	30.7819	27.046	-61.681	61.158	54.0356	-30.886	55.6188	44.0826	-52.8095	57.1351	23.6915	-73.2861	83.6376	47.9511	-29.5525	76.8443	38.7006	-46.5962	73.3209	25.335	-62.9657	103.749	41.5412	-13.8187	104.864	34.0811	-33.1941	104.151	25.1844	-53.3338	86.9273	61.1571	17.9956	92.6604	63.9972	41.4123	65.6823	67.7615	33.0407	
78	0.65	43.0187	46.3746	47.0312	27.89	31.5358	28.4309	16.5784	25.5221	2.42924	13.912	18.3662	-15.2983	42.6654	53.9464	-19.5744	32.4183	43.6951	-42.6121	32.0575	25.7635	-60.8781	63.0636	53.6347	-27.0613	62.5357	42.2562	-52.8983	58.6047	23.5318	-72.3396	84.9534	46.6399	-26.854	83.1813	36.1675	-48.7271	77.1487	21.5468	-63.6932	104.458	40.7177	-16.5498	107.129	34.4948	-30.4976	104.479	28.6828	-50.4681	87.8476	63.0841	19.52	89.9383	66.6446	45.83	65.2595	67.4849	32.5949	
79	0.658333	43.8552	44.5792	45.4248	27.7426	31.3034	26.8206	22.6257	23.7775	8.76733	16.6881	17.7439	-12.8076	39.9096	51.7031	-22.5975	37.4711	40.1601	-44.9687	29.6825	22.9513	-59.0994	62.5682	51.8766	-27.3991	61.7219	40.8962	-51.3201	57.835	18.6903	-74.195	83.4412	46.1942	-22.5636	81.6817	35.2945	-47.4661	78.3663	18.7979	-64.4239	106.608	40.1192	-14.9012	103.024	34.3308	-31.1221	108.12	25.8901	-51.1152	88.7945	61.7716	21.6336	89.7149	65.3833	44.1603	64.4997	65.3895	35.5604	
80	0.666667	44.8388	44.3944	47.2364	28.4492	30.004	24.8147	21.4878	22.6995	6.42682	12.2832	14.5343	-11.1126	44.7938	51.3465	-22.9309	36.7223	39.4853	-43.1121	32.4545	21.5935	-59.2165	65.643	49.6077	-28.5656	64.8906	38.9012	-52.2276	58.5295	20.3903	-71.5451	85.4191	45.6517	-22.4248	82.4933	34.69	-44.0294	78.6316	20.1665	-62.8607	103.951	39.9943	-13.4084	107.021	30.8467	-32.0233	107.814	21.5224	-51.2754	88.293	60.663	22.2451	91.663	62.766	45.4875	65.2856	64.2351	36.2832	
81	0.675	45.1986	42.1932	46.3219	30.3794	27.6497	26.163	21.1357	21.1717	6.8435	18.9193	14.2389	-12.0056	41.7357	49.7623	-21.7804	36.3627	37.3343	-42.5762	31.6929	18.8162	-60.1652	67.6982	48.6298	-31.3689	64.6382	34.9568	-54.1328	58.4112	17.6298	-71.7702	87.2576	43.9283	-24.7839	82.0519	33.162	-46.8398	83.0387	17.6643	-63.6295	105.566	37.5565	-14.6941	108.687	29.1224	-31.0709	108.402	22.8372	-49.1825	90.221	58.4047	23.9582	95.9546	61.863	46.8296	69.4847	63.5167	34.6679	
82	0.683333	42.8629	39.8516	45.3198	30.9496	25.7864	25.225	24.5053	19.7028	3.60561	18.8802	11.7282	-14.535	45.7981	47.0686	-23.5548	39.0784	36.8304	-42.2733	36.4127	19.3486	-57.2003	66.1809	47.5955	-28.3367	61.2486	38.2426	-49.9405	59.8427	13.9769	-73.1133	86.3754	42.1835	-25.8135	82.1492	30.1933	-47.0626	81.6454	17.1495	-60.899	105.342	37.2972	-11.8455	109.207	27.6217	-30.5421	107.884	21.5781	-47.6382	91.5187	57.1508	18.6997	93.0247	61.4227	44.0442	67.0537	61.1364	32.4887	
83	0.691667	47.3244	38.0049	46.3361	29.8672	23.4116	24.3274	23.3975	17.5464	5.72233	17.9668	9.95772	-14.6056	46.873	47.1855	-20.9656	37.2408	34.5629	-44.2942	32.4323	15.2275	-59.4316	68.8837	47.0312	-27.7946	64.4004	35.8336	-50.8975	60.9298	14.9902	-70.518	85.1292	41.407	-21.9814	85.6085	30.4538	-43.393	78.7268	14.5273	-62.7355	105.788	34.3895	-15.6212	106.447	25.6279	-33.2957	107.055	19.3955	-48.2411	93.7234	56.1372	20.57	96.9172	57.5682	48.2263	68.1115	61.3977	33.8338	
84	0.7	47.0604	36.556	45.8278	33.4354	23.9056	23.6844	22.2675	16.8635	2.73266	19.5209	9.98192	-13.4371	41.7769	46.5082	-21.9486	40.3352	33.5052	-44.4629	35.5611	14.8096	-60.1803	66.5739	45.3245	-26.6674	63.8523	33.4007	-54.5368	64.1342	12.5521	-72.9297	84.354	40.8251	-26.1193	88.7073	28.9789	-45.8574	78.7191	14.0122	-61.1517	106.645	35.1112	-10.5457	110.284	26.0779	-29.91	105.102	18.1451	-47.5581	88.1199	55.371	19	94.5952	57.2322	45.0911	68.9684	58.5884	32.4421	
85	0.708333	47.567	36.0757	43.6899	32.2041	22.8327	24.5973	25.7351	17.4798	2.85189	15.6924	9.74275	-13.0769	45.5636	45.2312	-20.2669	40.6477	34.5213	-44.0698	37.0644	14.8538	-61.7205	65.3897	44.4299	-31.2448	66.8232	34.4714	-51.9093	63.1763	11.3219	-73.8752	90.0384	38.3578	-26.4506	85.4056	28.8609	-44.9244	84.1137	10.8934	-62.7792	107.088	32.9693	-15.2064	109.476	25.4575	-30.6087	104.456	14.4772	-50.5909	90.034	53.6908	22.2691	95.4743	54.1059	48.5886	70.6544	57.719	36.7621	
86	0.716667	46.5553	36.4326	44.2506	30.8666	22.9957	27.0937	21.0674	19.2987	3.04111	13.8996	11.9654	-11.0601	46.0366	46.3593	-22.9281	42.7184	36.1284	-41.6158	40.5177	14.8539	-63.0849	69.6157	45.9631	-29.0457	67.5261	34.0181	-53.7715	63.0169	11.3003	-72.5932	90.3393	38.5539	-27.6665	84.7443	27.1702	-47.3297	79.0649	10.1431	-62.8337	107.382	33.6407	-13.5637	108.054	26.6394	-32.8038	107.015	18.2616	-49.2128	92.0013	52.7086	20.4201	97.0513	56.8194	47.4602	69.7018	59.3378	33.8087	
87	0.725	48.075	35.6254	47.6909	31.6638	25.3435	23.7694	20.0614	20.0804	3.72334	13.0446	14.7907	-14.3965	48.0131	46.7061	-22.0249	42.6825	36.5504	-41.3112	35.441	19.3677	-59.3686	67.8904	45.8396	-30.37	63.9179	34.7162	-51.57	65.1898	14.3532	-70.654	88.4065	39.3757	-25.9983	87.6451	26.5091	-46.5529	81.0774	11.3338	-60.9883	110.024	32.9303	-12.9566	108.987	25.5258	-31.0915	110.233	14.2812	-49.983	94.3672	54.0433	23.1305	95.8657	53.6442	46.4025	70.5893	56.9315	37.7784	
88	0.733333	47.4061	34.0533	48.9539	28.7335	22.5971	26.8545	22.4173	18.8772	6.31695	16.1718	13.5035	-13.553	47.8764	45.0625	-20.6465	42.5922	33.6023	-45.0164	35.0912	14.769	-60.9647	70.5552	44.1918	-30.3268	66.4295	33.9549	-51.1145	61.8939	12.6314	-71.7828	84.4754	37.432	-26.7396	83.8594	24.6136	-47.6841	82.2549	6.76929	-63.8386	106.199	33.3935	-12.536	110.11	23.6782	-32.5399	108.709	13.1722	-52.0334	89.5471	51.3321	19.4264	92.7228	53.7661	45.0431	67.7669	57.0469	36.0401	
89	0.741667	45.8888	33.3192	43.3889	30.0388	20.1944	26.3618	19.0723	16.0645	4.60236	15.1015	9.79862	-10.8062	44.7637	41.9784	-20.7307	37.3677	32.2387	-41.0797	37.4869	12.7936	-62.484	68.5952	40.9091	-28.5003	62.755	29.4224	-53.6113	59.4831	7.529	-72.0426	84.1086	35.0986	-27.2112	85.4394	22.8276	-45.5398	78.0346	7.20926	-61.6859	107.883	29.3685	-13.8644	106.886	23.2298	-30.6416	108.714	14.3352	-48.5737	92.3298	49.1829	21.9456	95.4858	50.6798	44.4248	65.0323	56.0753	33.2273	
90	0.75	44.3081	31.2417	46.3298	27.2614	19.6224	24.5996	17.6705	15.2345	2.76692	9.99836	7.45968	-12.5768	41.0532	40.6511	-21.8985	40.3894	29.381	-41.9871	34.1926	12.0056	-59.1455	68.1645	39.1354	-27.3561	61.9452	26.9228	-52.1949	60.8156	8.34375	-70.7052	87.0016	32.9888	-24.6161	82.6609	18.5757	-48.4424	78.7615	1.73068	-63.1433	105.185	27.195	-12.7659	109.153	18.1975	-31.3455	106.171	10.6887	-47.2163	88.6484	47.6518	18.6427	91.5304	49.1433	49.1201	64.0555	54.8194	33.8563	
